<svg xmlns="http://www.w3.org/2000/svg" width="82" height="82" viewBox="0 0 82 82">
  <g id="Group_2" data-name="Group 2" transform="translate(-62 -386)">
    <circle id="Ellipse_2" data-name="Ellipse 2" cx="41" cy="41" r="41" transform="translate(62 386)" fill="#f5f5f5"/>
    <g id="Group_1" data-name="Group 1" transform="translate(52 290.6)">
      <path id="Path_2" data-name="Path 2" d="M89.873,285.216H51.494a6.685,6.685,0,0,1-6.694-6.694V255.494a6.685,6.685,0,0,1,6.694-6.694H89.873a6.685,6.685,0,0,1,6.694,6.694v23.072A6.676,6.676,0,0,1,89.873,285.216Z" transform="translate(-19.64 -126.903)" fill="#d6ab7f"/>
      <path id="Path_3" data-name="Path 3" d="M49.712,272.5H90.457a8.906,8.906,0,0,0,5.311-1.74V254.694A6.685,6.685,0,0,0,89.074,248H50.694A6.685,6.685,0,0,0,44,254.694v15.8a9.184,9.184,0,0,0,5.712,2.008Z" transform="translate(-18.884 -126.147)" fill="#0d1014"/>
      <path id="Path_4" data-name="Path 4" d="M82.32,278.108H43.94a7.161,7.161,0,0,1-7.14-7.14V247.94a7.161,7.161,0,0,1,7.14-7.14H82.32a7.161,7.161,0,0,1,7.14,7.14v23.072A7.152,7.152,0,0,1,82.32,278.108ZM43.94,241.693a6.266,6.266,0,0,0-6.248,6.248v23.072a6.266,6.266,0,0,0,6.248,6.248H82.32a6.266,6.266,0,0,0,6.248-6.248V247.94a6.266,6.266,0,0,0-6.248-6.248Z" transform="translate(-12.086 -119.349)" fill="#6a576d"/>
      <path id="Path_5" data-name="Path 5" d="M471.031,648.775a2.21,2.21,0,0,1-2.231-2.231V644h4.463v2.544A2.238,2.238,0,0,1,471.031,648.775Z" transform="translate(-419.987 -500.057)" fill="#fff"/>
      <path id="Path_6" data-name="Path 6" d="M463.478,637.891a2.686,2.686,0,0,1-2.678-2.678v-2.767a.422.422,0,0,1,.446-.446h4.463a.422.422,0,0,1,.446.446v2.767A2.686,2.686,0,0,1,463.478,637.891Zm-1.785-5.043v2.321a1.785,1.785,0,0,0,3.57,0v-2.321Z" transform="translate(-412.434 -488.726)" fill="#6a576d"/>
      <path id="Path_7" data-name="Path 7" d="M44,213.645H38.507a6.4,6.4,0,0,0-6.382,6.337l-.134,10.889a6.372,6.372,0,0,0,6.382,6.471H79.118a6.372,6.372,0,0,0,6.382-6.471l-.134-10.934a6.429,6.429,0,0,0-6.382-6.337H44" transform="translate(-7.545 -93.666)" fill="#938993"/>
      <path id="Path_8" data-name="Path 8" d="M71.617,230.99H30.828a6.716,6.716,0,0,1-4.864-2.053A6.812,6.812,0,0,1,24,224.072l.134-10.934a6.838,6.838,0,0,1,6.828-6.739H71.483a6.839,6.839,0,0,1,6.828,6.739l.134,10.934a6.992,6.992,0,0,1-1.964,4.909A6.854,6.854,0,0,1,71.617,230.99Zm-40.655-23.7a5.952,5.952,0,0,0-5.935,5.891l-.134,10.889a5.933,5.933,0,0,0,1.7,4.24,5.835,5.835,0,0,0,4.24,1.785H71.573a5.942,5.942,0,0,0,5.935-6.025l-.134-10.934a5.982,5.982,0,0,0-5.935-5.891H30.962Z" transform="translate(0 -86.868)" fill="#6a576d"/>
      <path id="Path_9" data-name="Path 9" d="M443.883,505.6h-.089A3.81,3.81,0,0,0,440,509.349v3.927h7.676v-3.927A3.752,3.752,0,0,0,443.883,505.6Z" transform="translate(-392.794 -369.377)" fill="#ec7bb0"/>
      <path id="Path_10" data-name="Path 10" d="M342.679,144.122H335a.458.458,0,0,1-.446-.446l.045-3.7a4.228,4.228,0,0,1,4.24-4.195h.089a4.228,4.228,0,0,1,4.24,4.195l-.045,3.7A.422.422,0,0,1,342.679,144.122Zm-7.23-.893h6.783v-3.258a3.333,3.333,0,0,0-3.347-3.3H338.8a3.333,3.333,0,0,0-3.347,3.3Zm12.987-22.8a.422.422,0,0,1-.446-.446,4.408,4.408,0,0,0-1.071-3.258c-1.428-1.428-4.284-1.428-7.587-1.428h-.982c-3.3,0-6.159,0-7.587,1.428a4.408,4.408,0,0,0-1.071,3.258.446.446,0,0,1-.893,0,5.189,5.189,0,0,1,1.339-3.883c1.7-1.7,4.686-1.7,8.211-1.7h.982c3.481,0,6.516,0,8.211,1.7a5.189,5.189,0,0,1,1.339,3.883A.48.48,0,0,1,348.436,120.425Z" transform="translate(-287.797)" fill="#6a576d"/>
    </g>
  </g>
</svg>
