<svg xmlns="http://www.w3.org/2000/svg" width="21" height="26.216" viewBox="0 0 21 26.216">
  <path id="Path_1" data-name="Path 1" d="M163.456,72.2a2.546,2.546,0,0,1-2.359,1.136H145.309a2.546,2.546,0,0,1-2.359-1.136,2.511,2.511,0,0,1,.262-2.592l1.078-1.719a4.875,4.875,0,0,0,.583-1.806l.466-6.03a8.579,8.579,0,0,1,5.826-7.311,2.118,2.118,0,0,1,4.078,0,8.5,8.5,0,0,1,5.8,7.311l.466,6.03a4.875,4.875,0,0,0,.583,1.806l1.078,1.719A2.523,2.523,0,0,1,163.456,72.2Zm-7.34,1.719h-5.534a.564.564,0,0,0-.5.291.593.593,0,0,0,0,.583c.146.262,1.6,2.622,3.262,2.622,1.689,0,3.117-2.359,3.262-2.622a.529.529,0,0,0,0-.583A.6.6,0,0,0,156.116,73.92Z" transform="translate(-142.697 -51.2)" fill="#999"/>
</svg>
